<svg width="48" height="49" viewBox="0 0 48 49" fill="none" xmlns="http://www.w3.org/2000/svg">
<rect y="0.57019" width="48" height="48" rx="24" fill="#EEEEEE"/>
<path d="M37.3333 15H14.7778C14.1335 15 13.6112 15.5223 13.6112 16.1667V16.5555H11.6667C11.0224 16.5555 10.5001 17.0779 10.5001 17.7222V30.9444C10.5001 32.4478 11.7188 33.6666 13.2223 33.6666H36.1666C37.4553 33.6666 38.4999 32.6219 38.4999 31.3333V16.1667C38.4999 15.5223 37.9776 15 37.3333 15ZM13.2223 31.3333C13.1191 31.3333 13.0202 31.2923 12.9473 31.2194C12.8744 31.1464 12.8334 31.0475 12.8334 30.9444V18.8889H13.6112V30.9444C13.6112 31.0475 13.5702 31.1464 13.4973 31.2194C13.4243 31.2923 13.3254 31.3333 13.2223 31.3333ZM24.6944 30.5555H17.3056C16.9834 30.5555 16.7223 30.2943 16.7223 29.9722V29.5833C16.7223 29.2611 16.9834 28.9999 17.3056 28.9999H24.6944C25.0166 28.9999 25.2778 29.2611 25.2778 29.5833V29.9722C25.2778 30.2943 25.0166 30.5555 24.6944 30.5555ZM34.8055 30.5555H27.4167C27.0945 30.5555 26.8333 30.2943 26.8333 29.9722V29.5833C26.8333 29.2611 27.0945 28.9999 27.4167 28.9999H34.8055C35.1277 28.9999 35.3888 29.2611 35.3888 29.5833V29.9722C35.3888 30.2943 35.1277 30.5555 34.8055 30.5555ZM24.6944 25.8888H17.3056C16.9834 25.8888 16.7223 25.6277 16.7223 25.3055V24.9166C16.7223 24.5945 16.9834 24.3333 17.3056 24.3333H24.6944C25.0166 24.3333 25.2778 24.5945 25.2778 24.9166V25.3055C25.2778 25.6277 25.0166 25.8888 24.6944 25.8888ZM34.8055 25.8888H27.4167C27.0945 25.8888 26.8333 25.6277 26.8333 25.3055V24.9166C26.8333 24.5945 27.0945 24.3333 27.4167 24.3333H34.8055C35.1277 24.3333 35.3888 24.5945 35.3888 24.9166V25.3055C35.3888 25.6277 35.1277 25.8888 34.8055 25.8888ZM34.8055 21.2222H17.3056C16.9834 21.2222 16.7223 20.961 16.7223 20.6389V18.6944C16.7223 18.3723 16.9834 18.1111 17.3056 18.1111H34.8055C35.1277 18.1111 35.3888 18.3723 35.3888 18.6944V20.6389C35.3888 20.961 35.1277 21.2222 34.8055 21.2222Z" fill="#8F8F8F"/>
</svg>
