<svg width="48" height="49" viewBox="0 0 48 49" fill="none" xmlns="http://www.w3.org/2000/svg">
<rect y="0.57019" width="48" height="48" rx="24" fill="#EEEEEE"/>
<path d="M23.8667 28.7568C21.7654 28.7568 19.664 26.9181 18.6134 26.1301C13.36 22.4528 11.784 21.1395 10.7334 20.3515V31.3835C10.7334 32.8339 11.9096 34.0101 13.36 34.0101H34.3733C35.8238 34.0101 37 32.8339 37 31.3835V20.3515C35.9493 21.1395 34.3733 22.4528 29.12 26.1301C28.0694 26.9181 25.968 28.7568 23.8667 28.7568ZM34.3733 12.9968H13.36C11.9096 12.9968 10.7334 14.1731 10.7334 15.6235V16.9368C12.8347 18.5128 12.572 18.5128 20.1894 24.0288C20.9774 24.5541 22.5534 26.1301 23.8667 26.1301C25.18 26.1301 26.756 24.5541 27.544 24.2915C35.1613 18.7755 34.8987 18.7755 37 17.1995V15.6235C37 14.1731 35.8238 12.9968 34.3733 12.9968Z" fill="black"/>
</svg>
