<svg width="49" height="49" viewBox="0 0 49 49" fill="none" xmlns="http://www.w3.org/2000/svg">
<rect width="49" height="48.5702" rx="24.2851" fill="#68E4A1"/>
<path d="M5.64424 29.8472C5.48864 30.0737 5.65082 30.3818 5.92562 30.3818L9.13186 30.3818C9.24585 30.3818 9.35231 30.3249 9.41566 30.2302L15.4968 21.1334C15.632 20.931 15.9296 20.9312 16.0646 21.1337L22.1288 30.2298C22.1921 30.3248 22.2987 30.3818 22.4128 30.3818L25.7936 30.3818C26.0684 30.3818 26.2306 30.0737 26.075 29.8472L19.2128 19.8571C18.454 18.7524 17.1998 18.0923 15.8596 18.0923V18.0923C14.5194 18.0923 13.2652 18.7524 12.5064 19.8571L5.64424 29.8472Z" fill="white"/>
<path d="M43.2876 18.6289C43.4455 18.4026 43.2836 18.0922 43.0076 18.0922H39.7406C39.6275 18.0922 39.5217 18.1482 39.4582 18.2417L33.2716 27.3495C33.136 27.549 32.8419 27.5488 32.7066 27.3491L26.5371 18.2421C26.4736 18.1483 26.3678 18.0922 26.2545 18.0922H22.8102C22.5342 18.0922 22.3723 18.4026 22.5302 18.6289L29.4882 28.5977C30.2684 29.7156 31.5457 30.3817 32.9089 30.3817V30.3817C34.2721 30.3817 35.5493 29.7156 36.3296 28.5977L43.2876 18.6289Z" fill="white"/>
</svg>
